# xmcd
#
# Track frame offsets:
# 150
# 14445
# 29680
# 46114
# 59746
# 73818
# 87308
# 100402
# 114204
# 128646
# 144686
# 159925
# 175268
# 190203
#
# Disc length: 2756 seconds
#
#
# Revision: 0
# Processed by: cddbd v1.5.2PL0 Copyright (c) Steve Scherf et al.
# Submitted via: FreeRIP 2.945 
#
DISCID=c30ac20e
DTITLE=Arte Livre - Linda Bailarina
DYEAR=1900
DGENRE=Bailão
TTITLE0=Linda bailarina
TTITLE1=Menina da loja de discos
TTITLE2=Traição
TTITLE3=Menina dos meus sonhos
TTITLE4=Vou virar o jogo
TTITLE5=Rebola, morena
TTITLE6=Vira e mexe
TTITLE7=Tarde demais
TTITLE8=Cheia de charme
TTITLE9=Escola da vida
TTITLE10=Momentos de amor
TTITLE11=Morena dos olhos verdes
TTITLE12=Paixão ardente
TTITLE13=Uma história de amor
EXTD=
EXTT0=
EXTT1=
EXTT2=
EXTT3=
EXTT4=
EXTT5=
EXTT6=
EXTT7=
EXTT8=
EXTT9=
EXTT10=
EXTT11=
EXTT12=
EXTT13=
PLAYORDER=
